<svg xmlns="http://www.w3.org/2000/svg" viewBox="0 -0.5 33 66" shape-rendering="crispEdges">
<metadata>Made with Pixels to Svg http://codepen.io/shshaw/pen/XbxvNj</metadata>
<path stroke="#cb4f0f" d="M12 0h4M8 1h4M13 1h4M6 2h3M12 2h5M6 3h8M6 4h6M6 5h4M6 6h3M12 6h10M6 7h2M10 7h13M15 32h3M14 33h4M13 34h5M27 34h2M13 35h2M16 35h2M26 35h4M13 36h2M16 36h2M25 36h6M13 37h3M17 37h1M24 37h7M13 38h1M15 38h2M23 38h7M14 39h2M23 39h7M23 40h5M23 41h1M25 41h1M27 41h1M20 42h1M23 42h1M25 42h1M27 42h1M21 43h1M23 43h1M25 43h1M27 43h2M21 44h1M24 44h1M26 44h1M22 45h1M17 48h2M16 49h1M18 49h2M14 50h7M14 51h3M18 51h3M28 51h1M15 52h6M26 52h3M14 53h3M18 53h4M25 53h1M27 53h3M13 54h9M25 54h2M28 54h3M12 55h5M25 55h6M24 56h4M29 56h3M25 57h4M30 57h2M26 58h5M26 59h4M25 60h5M24 61h5M23 62h5" />
<path stroke="#000000" d="M12 1h1M9 2h3M14 3h5M12 4h10M10 5h13M9 6h3M22 6h2M4 7h2M8 7h2M23 7h2M3 8h3M8 8h2M14 8h5M21 8h1M3 9h3M7 9h2M15 9h3M2 10h6M9 10h1M16 10h2M19 10h1M22 10h1M2 11h5M12 11h1M16 11h2M19 11h1M22 11h2M2 12h2M10 12h2M15 12h3M19 12h2M22 12h2M9 13h1M13 13h5M19 13h1M22 13h1M10 14h4M16 14h2M19 14h1M21 14h3M9 15h4M16 15h2M20 15h2M23 15h1M4 16h8M15 16h2M5 17h6M15 17h1M14 18h2M22 18h3M13 19h2M22 19h2M4 20h2M10 20h4M21 20h2M5 21h8M21 21h2M21 22h2M20 23h3M20 24h3M18 25h1M20 25h1M22 25h2M18 26h1M20 26h4M17 27h1M20 27h5M20 28h5M20 29h1M22 29h4M28 29h1M20 30h6M27 30h1M20 31h7M20 32h7M20 33h1M22 33h5M20 34h7M15 35h1M20 35h6M15 36h1M20 36h4M16 37h1M20 37h3M14 38h1M20 38h2M20 39h1M31 39h2M19 40h4M28 40h3M20 41h3M24 41h1M26 41h1M28 41h1M21 42h2M24 42h1M26 42h1M20 43h1M22 43h1M24 43h1M26 43h1M20 44h1M22 44h2M20 45h2M20 46h2M20 47h2M20 48h1M17 49h1M17 51h1M17 53h1M26 53h1M27 54h1M17 55h5M12 56h6M19 56h2M28 56h1M29 57h1M31 58h1M30 59h2M30 60h2M29 61h1M28 62h1M23 63h5" />
<path stroke="#ffffff" d="M6 8h2M10 8h2M6 9h1M9 9h3M8 10h1M10 10h2M9 11h2M25 17h3M25 18h4M24 19h5M23 20h7M23 21h7M23 22h8M23 23h8M23 24h8M21 25h1M24 25h8M24 26h8M25 27h7M25 28h8M21 29h1M26 29h2M29 29h4M26 30h1M28 30h5M18 31h1M27 31h6M18 32h2M27 32h5M18 33h2M21 33h1M27 33h5M18 34h2M29 34h3M18 35h2M30 35h1M18 36h2M24 36h1M31 36h1M19 37h1M23 37h1M31 37h1M19 38h1M22 38h1M30 38h3M21 39h2M30 39h1" />
<path stroke="#ff9b3b" d="M12 8h2M19 8h2M12 9h3M18 9h4M12 10h4M18 10h1M20 10h2M7 11h2M11 11h1M13 11h3M18 11h1M20 11h2M5 12h5M12 12h3M18 12h1M21 12h1M4 13h5M10 13h3M18 13h1M20 13h2M3 14h7M14 14h2M18 14h1M20 14h1M3 15h6M13 15h3M18 15h2M12 16h3M17 16h4M11 17h4M16 17h6M5 18h9M16 18h5M4 19h9M15 19h5M6 20h4M14 20h3M18 20h1M13 21h3" />
<path stroke="#db2b00" d="M22 16h1M22 17h2M21 18h1M20 19h2M19 20h2M19 21h2M18 22h3M18 23h2M17 24h3M16 25h2M19 25h1M16 26h2M19 26h1M16 27h1M18 27h2M17 28h3M17 29h3M18 30h2M19 31h1" />
<path stroke="#233bef" d="M18 41h2M29 41h2M17 42h3M28 42h3M16 43h4M29 43h1M15 44h5M25 44h1M27 44h3M14 45h6M23 45h7M14 46h6M22 46h7M14 47h6M22 47h7M14 48h3M19 48h1M21 48h7M15 49h1M20 49h8M21 50h6M21 51h7M21 52h5M22 53h3M23 54h2M24 55h1" />
</svg>