<svg xmlns="http://www.w3.org/2000/svg" viewBox="0 -0.5 30 66" shape-rendering="crispEdges">
<metadata>Made with Pixels to Svg http://codepen.io/shshaw/pen/XbxvNj</metadata>
<path stroke="#cb4f0f" d="M10 56h2M16 56h2M9 57h10M8 58h12M8 59h12M8 60h12M6 61h2M10 61h8M20 61h2M8 62h1M19 62h1M9 63h3M16 63h3" />
<path stroke="#000000" d="M3 61h3M22 61h3M2 62h2M6 62h2M20 62h2M24 62h2M1 63h2M8 63h1M19 63h1M25 63h2" />
<path stroke="#233bef" d="M8 61h2M18 61h2M4 62h2M9 62h10M22 62h2M3 63h5M12 63h4M20 63h5" />
</svg>