<svg xmlns="http://www.w3.org/2000/svg" viewBox="0 -0.5 34 66" shape-rendering="crispEdges">
<metadata>Made with Pixels to Svg http://codepen.io/shshaw/pen/XbxvNj</metadata>
<path stroke="#cb4f0f" d="M13 3h2M19 3h2M12 4h10M11 5h12M11 6h12M11 7h12M9 8h2M13 8h8M23 8h2M11 9h1M22 9h1M12 10h3M19 10h3M28 34h1M29 35h1M29 36h1M26 37h1M28 37h3M26 38h1M28 38h4M29 39h3M25 40h7M6 41h1M25 41h1M29 41h2M1 42h3M6 42h1M26 42h4M2 43h4M8 43h1M14 43h6M25 43h1M2 44h3M7 44h2M14 44h2M18 44h2M25 44h2M1 45h4M6 45h3M14 45h6M25 45h3M1 46h4M6 46h3M25 46h3M1 47h2M4 47h1M6 47h2M26 47h2M1 48h2M4 48h1M2 49h2M3 50h2M9 53h2M23 53h2M8 54h1M10 54h3M21 54h3M25 54h1M7 55h3M11 55h2M21 55h2M24 55h3M5 56h5M11 56h2M21 56h2M24 56h5M6 57h5M12 57h1M21 57h1M23 57h5M7 58h4M12 58h2M20 58h2M23 58h4M7 59h4M12 59h2M20 59h2M23 59h4M5 60h2M9 60h2M12 60h2M20 60h2M23 60h2M27 60h2M3 61h11M20 61h11M2 62h7M25 62h7" />
<path stroke="#000000" d="M6 8h3M25 8h3M5 9h2M9 9h2M23 9h2M27 9h2M4 10h2M11 10h1M22 10h1M28 10h2M8 11h7M19 11h7M9 12h2M15 12h4M23 12h2M9 13h2M14 13h1M19 13h1M23 13h2M7 14h1M9 14h1M24 14h1M26 14h1M7 15h1M9 15h1M12 15h3M19 15h3M24 15h1M26 15h1M9 16h1M13 16h1M20 16h1M24 16h1M9 17h2M14 17h2M18 17h2M23 17h2M9 18h2M12 18h10M23 18h2M9 19h4M21 19h4M9 20h2M15 20h1M18 20h1M23 20h2M8 21h1M10 21h1M13 21h1M20 21h1M23 21h1M25 21h1M8 22h1M10 22h1M15 22h4M23 22h1M25 22h1M8 23h1M10 23h14M25 23h1M8 24h1M11 24h12M25 24h1M8 25h1M14 25h6M25 25h1M8 26h1M25 26h1M8 27h2M24 27h2M8 28h3M14 28h1M19 28h1M23 28h3M8 29h3M15 29h1M18 29h1M23 29h3M8 30h4M16 30h2M22 30h4M8 31h5M21 31h5M7 32h7M20 32h7M7 33h5M13 33h1M20 33h1M22 33h5M7 34h7M20 34h6M27 34h1M7 35h8M19 35h8M28 35h1M7 36h6M14 36h1M16 36h2M19 36h1M21 36h8M8 37h7M19 37h7M27 37h1M9 38h3M13 38h1M20 38h1M22 38h3M27 38h1M10 39h4M16 39h2M20 39h4M26 39h3M6 40h1M11 40h2M21 40h2M7 41h1M12 41h1M21 41h1M26 41h3M5 42h1M7 42h5M22 42h3M6 43h2M9 43h5M20 43h5M6 44h1M9 44h5M16 44h2M20 44h5M12 45h2M20 45h2M8 47h1M7 48h2M7 49h2M8 50h1M9 54h1M24 54h1M10 55h1M23 55h1M10 56h1M23 56h1M11 57h1M22 57h1M11 58h1M22 58h1M11 59h1M22 59h1M7 60h2M11 60h1M22 60h1M25 60h2M9 62h5M20 62h5M2 63h8M11 63h2M21 63h2M24 63h8" />
<path stroke="#233bef" d="M11 8h2M21 8h2M7 9h2M12 9h10M25 9h2M6 10h5M15 10h4M23 10h5M26 43h2M27 44h1M9 45h3M22 45h3M9 46h16M28 46h1M9 47h17M28 47h1M6 48h1M9 48h21M5 49h2M9 49h21M5 50h3M9 50h22M4 51h10M20 51h10M4 52h8M22 52h8M4 53h5M11 53h1M22 53h1M25 53h5M5 54h3M26 54h3M6 55h1M27 55h1" />
<path stroke="#ff9b3b" d="M15 11h4M7 12h2M11 12h1M22 12h1M25 12h2M6 13h3M11 13h1M16 13h2M22 13h1M25 13h3M6 14h1M8 14h1M10 14h3M15 14h4M21 14h3M25 14h1M27 14h1M6 15h1M8 15h1M10 15h2M15 15h4M22 15h2M25 15h1M27 15h1M6 16h3M10 16h3M14 16h6M21 16h3M25 16h3M7 17h2M11 17h3M16 17h2M20 17h3M25 17h2M11 18h1M22 18h1" />
<path stroke="#ffffff" d="M12 12h3M19 12h3M12 13h2M15 13h1M18 13h1M20 13h2M13 14h2M19 14h2M13 19h8M11 20h4M16 20h2M19 20h4M7 21h1M11 21h2M14 21h6M21 21h2M6 22h2M11 22h4M19 22h4M26 22h1M5 23h3M26 23h2M4 24h4M26 24h3M3 25h5M10 25h1M23 25h1M26 25h3M3 26h5M11 26h1M22 26h1M26 26h4M2 27h6M12 27h1M21 27h1M26 27h4M2 28h6M12 28h1M21 28h1M26 28h5M2 29h6M13 29h1M20 29h1M26 29h5M2 30h6M14 30h1M19 30h1M26 30h6M2 31h6M15 31h1M18 31h1M26 31h6M1 32h6M16 32h2M27 32h5M1 33h5M12 33h1M14 33h1M19 33h1M21 33h1M27 33h6M1 34h5M14 34h2M18 34h2M26 34h1M29 34h4M1 35h5M15 35h4M27 35h1M30 35h3M1 36h5M13 36h1M15 36h1M18 36h1M20 36h1M30 36h3M1 37h5M7 37h1M15 37h4M31 37h2M2 38h4M7 38h2M12 38h1M14 38h6M21 38h1M25 38h1M32 38h1M2 39h4M8 39h2M14 39h2M18 39h2M24 39h2M2 40h4M8 40h3M13 40h8M23 40h2M2 41h4M8 41h4M13 41h8M22 41h3M4 42h1M12 42h10" />
<path stroke="#db2b00" d="M9 21h1M24 21h1M9 22h1M24 22h1M9 23h1M24 23h1M9 24h2M23 24h2M9 25h1M11 25h3M20 25h3M24 25h1M9 26h2M12 26h10M23 26h2M10 27h2M13 27h8M22 27h2M11 28h1M13 28h1M15 28h4M20 28h1M22 28h1M11 29h2M14 29h1M16 29h2M19 29h1M21 29h2M12 30h2M15 30h1M18 30h1M20 30h2M13 31h2M16 31h2M19 31h2M14 32h2M18 32h2M15 33h4M16 34h2" />
</svg>