<svg xmlns="http://www.w3.org/2000/svg" viewBox="0 -0.5 32 66" shape-rendering="crispEdges">
<metadata>Made with Pixels to Svg http://codepen.io/shshaw/pen/XbxvNj</metadata>
<path stroke="#cb4f0f" d="M10 1h4M6 2h4M11 2h4M4 3h3M10 3h5M4 4h8M4 5h6M4 6h4M4 7h3M10 7h10M4 8h2M8 8h13M13 33h3M12 34h4M11 35h5M25 35h2M11 36h2M14 36h2M24 36h4M11 37h2M14 37h2M23 37h6M11 38h3M15 38h1M22 38h7M11 39h1M13 39h2M21 39h7M12 40h2M21 40h7M21 41h5M18 42h1M21 42h1M23 42h1M25 42h1M19 43h1M21 43h1M23 43h1M25 43h1M19 44h1M21 44h1M23 44h1M25 44h2M22 45h1M24 45h1M25 52h4M14 53h2M24 53h1M26 53h4M13 54h2M16 54h1M24 54h2M27 54h4M12 55h6M24 55h3M28 55h3M12 56h3M16 56h3M24 56h4M29 56h2M12 57h7M25 57h4M30 57h1M12 58h3M16 58h3M26 58h4M11 59h8M27 59h3M10 60h5M16 60h3M27 60h3M9 61h10M26 61h3M8 62h6M25 62h4" />
<path stroke="#000000" d="M10 2h1M7 3h3M12 4h5M10 5h10M8 6h13M7 7h3M20 7h2M2 8h2M6 8h2M21 8h2M1 9h3M6 9h2M12 9h5M19 9h1M1 10h3M5 10h2M13 10h3M0 11h6M7 11h1M14 11h2M17 11h1M20 11h1M0 12h5M10 12h1M14 12h2M17 12h1M20 12h2M0 13h2M8 13h2M13 13h3M17 13h2M20 13h2M7 14h1M11 14h5M17 14h1M20 14h1M8 15h4M14 15h2M17 15h1M19 15h3M7 16h4M14 16h2M18 16h2M21 16h1M2 17h8M13 17h2M3 18h6M13 18h1M12 19h2M20 19h3M11 20h2M20 20h2M2 21h2M8 21h4M19 21h2M3 22h8M19 22h2M19 23h2M18 24h3M18 25h3M16 26h1M18 26h1M20 26h2M16 27h1M18 27h4M15 28h1M18 28h5M18 29h5M18 30h1M20 30h4M26 30h1M18 31h6M25 31h1M18 32h7M18 33h7M18 34h1M20 34h5M18 35h7M13 36h1M18 36h6M13 37h1M18 37h4M14 38h1M18 38h3M12 39h1M18 39h2M18 40h1M29 40h2M17 41h4M26 41h3M19 42h2M22 42h1M24 42h1M26 42h1M18 43h1M20 43h1M22 43h1M24 43h1M18 44h1M20 44h1M22 44h1M24 44h1M18 45h3M18 46h2M18 47h2M18 48h2M18 49h1M25 53h1M15 54h1M26 54h1M27 55h1M31 55h1M15 56h1M28 56h1M31 56h1M29 57h1M31 57h1M15 58h1M30 58h1M30 59h1M15 60h1M30 60h1M29 61h1M14 62h5M29 62h1M8 63h7M16 63h2M25 63h4" />
<path stroke="#ffffff" d="M4 9h2M8 9h2M4 10h1M7 10h3M6 11h1M8 11h2M7 12h2M23 18h3M23 19h4M22 20h5M21 21h7M21 22h7M21 23h8M21 24h8M21 25h8M19 26h1M22 26h8M22 27h8M23 28h7M23 29h8M19 30h1M24 30h2M27 30h4M24 31h1M26 31h5M16 32h1M25 32h6M16 33h2M25 33h5M16 34h2M19 34h1M25 34h5M16 35h2M27 35h3M16 36h2M28 36h1M16 37h2M22 37h1M29 37h1M17 38h1M21 38h1M29 38h1M17 39h1M20 39h1M28 39h3M19 40h2M28 40h1" />
<path stroke="#ff9b3b" d="M10 9h2M17 9h2M10 10h3M16 10h4M10 11h4M16 11h1M18 11h2M5 12h2M9 12h1M11 12h3M16 12h1M18 12h2M3 13h5M10 13h3M16 13h1M19 13h1M2 14h5M8 14h3M16 14h1M18 14h2M1 15h7M12 15h2M16 15h1M18 15h1M1 16h6M11 16h3M16 16h2M10 17h3M15 17h4M9 18h4M14 18h6M3 19h9M14 19h5M2 20h9M13 20h5M4 21h4M12 21h3M16 21h1M11 22h3" />
<path stroke="#db2b00" d="M20 17h1M20 18h2M19 19h1M18 20h2M17 21h2M17 22h2M16 23h3M16 24h2M15 25h3M14 26h2M17 26h1M14 27h2M17 27h1M14 28h1M16 28h2M15 29h3M15 30h3M16 31h2M17 32h1" />
<path stroke="#233bef" d="M16 42h2M27 42h2M16 43h2M26 43h3M15 44h3M27 44h1M15 45h3M21 45h1M23 45h1M25 45h3M14 46h4M20 46h7M13 47h5M20 47h7M13 48h5M20 48h7M12 49h6M19 49h8M12 50h16M12 51h16M12 52h8M21 52h4M12 53h2M16 53h3M21 53h3M12 54h1M17 54h2M22 54h2M18 55h1M23 55h1" />
</svg>