<svg xmlns="http://www.w3.org/2000/svg" viewBox="0 -0.5 33 66" shape-rendering="crispEdges">
<metadata>Made with Pixels to Svg http://codepen.io/shshaw/pen/XbxvNj</metadata>
<path stroke="#233bef" d="M4 40h2M26 40h2M3 41h3M26 41h3M2 42h4M26 42h4M2 43h4M26 43h4M2 44h3M27 44h3M2 45h3M27 45h3M1 46h4M27 46h4M1 47h3M28 47h3M0 48h1M2 48h2M9 48h1M22 48h1M28 48h2M31 48h1M0 49h2M9 49h3M13 49h6M20 49h3M30 49h2M0 50h3M8 50h4M13 50h6M20 50h4M29 50h3M0 51h2M8 51h5M14 51h4M19 51h5M30 51h2M7 52h6M14 52h4M19 52h6M7 53h6M14 53h4M19 53h6M6 54h20M7 55h18M7 56h18M8 57h16M8 58h16M8 59h16M9 60h14M9 61h14M10 62h12M12 63h8" />
<path stroke="#cb4f0f" d="M6 40h1M25 40h1M7 41h1M24 41h1M7 42h1M24 42h1M7 43h1M24 43h1M6 44h2M24 44h2M6 45h2M24 45h2M6 46h1M25 46h1M5 47h2M25 47h2M1 48h1M5 48h4M23 48h4M30 48h1M2 49h1M4 49h5M23 49h5M29 49h1M4 50h1M6 50h2M24 50h2M27 50h1M3 51h3M7 51h1M24 51h1M26 51h3M2 52h5M25 52h5M3 53h4M25 53h4M5 54h1M26 54h1M5 58h3M24 58h3M3 59h5M24 59h5M2 60h7M23 60h7M2 61h1M4 61h5M23 61h5M29 61h1M2 62h1M4 62h2M7 62h2M23 62h2M26 62h2M29 62h1M3 63h1M5 63h1M7 63h2M23 63h2M26 63h1M28 63h1" />
<path stroke="#000000" d="M6 41h1M25 41h1M6 42h1M25 42h1M6 43h1M25 43h1M5 44h1M26 44h1M5 45h1M26 45h1M5 46h1M26 46h1M4 47h1M27 47h1M4 48h1M27 48h1M3 49h1M28 49h1M3 50h1M5 50h1M12 50h1M19 50h1M26 50h1M28 50h1M2 51h1M6 51h1M13 51h1M18 51h1M25 51h1M29 51h1M1 52h1M13 52h1M18 52h1M30 52h1M13 53h1M18 53h1M3 61h1M28 61h1M3 62h1M6 62h1M25 62h1M28 62h1M4 63h1M6 63h1M25 63h1M27 63h1" />
</svg>