<svg xmlns="http://www.w3.org/2000/svg" viewBox="0 -0.5 33 66" shape-rendering="crispEdges">
<metadata>Made with Pixels to Svg http://codepen.io/shshaw/pen/XbxvNj</metadata>
<path stroke="#cb4f0f" d="M13 0h2M19 0h2M12 1h10M11 2h12M11 3h12M11 4h12M9 5h2M13 5h8M23 5h2M11 6h1M22 6h1M12 7h3M19 7h3M3 30h3M2 31h7M1 32h8M1 33h6M2 34h3M6 34h2M2 35h4M7 35h1M3 36h3M7 36h1M4 37h4M3 38h2M27 38h1M6 39h1M27 39h1M30 39h3M8 40h1M14 40h6M25 40h1M28 40h4M7 41h2M14 41h2M18 41h2M25 41h2M29 41h3M6 42h3M14 42h6M25 42h3M29 42h4M6 43h3M25 43h3M29 43h4M6 44h2M26 44h2M29 44h1M31 44h2M29 45h1M31 45h2M30 46h2M29 47h2M10 53h2M22 53h2M9 54h1M11 54h3M20 54h3M24 54h1M8 55h3M12 55h2M20 55h2M23 55h3M6 56h5M12 56h2M20 56h2M23 56h5M7 57h5M13 57h1M20 57h1M22 57h5M8 58h4M13 58h2M19 58h2M22 58h4M8 59h4M13 59h2M19 59h2M22 59h4M6 60h2M9 60h3M13 60h2M19 60h2M22 60h3M26 60h2M4 61h11M19 61h11M3 62h7M24 62h7" />
<path stroke="#432f00" d="M6 5h3M25 5h3M5 6h2M9 6h2M23 6h2M27 6h2M4 7h2M11 7h1M22 7h1M28 7h2M8 8h7M19 8h7M9 9h2M15 9h4M23 9h2M9 10h2M14 10h1M19 10h1M23 10h2M7 11h1M9 11h1M24 11h1M26 11h1M7 12h1M9 12h1M12 12h3M19 12h3M24 12h1M26 12h1M9 13h1M13 13h1M20 13h1M24 13h1M9 14h2M14 14h2M18 14h2M23 14h2M9 15h2M12 15h10M23 15h2M9 16h4M21 16h4M9 17h2M15 17h1M18 17h1M23 17h2M8 18h1M10 18h1M13 18h1M20 18h1M23 18h1M25 18h1M8 19h1M10 19h1M15 19h4M23 19h1M25 19h1M8 20h1M10 20h14M25 20h1M8 21h1M11 21h12M25 21h1M8 22h1M14 22h6M25 22h1M8 23h1M25 23h1M8 24h2M24 24h2M8 25h3M14 25h1M19 25h1M23 25h3M8 26h3M15 26h1M18 26h1M23 26h3M8 27h4M16 27h2M22 27h4M8 28h5M21 28h5M7 29h7M20 29h7M7 30h5M13 30h1M20 30h1M22 30h5M9 31h5M20 31h7M9 32h6M19 32h8M9 33h4M14 33h1M16 33h2M19 33h1M21 33h6M5 34h1M9 34h6M19 34h7M6 35h1M9 35h3M13 35h1M20 35h1M22 35h3M6 36h1M10 36h4M16 36h2M20 36h4M11 37h2M21 37h2M27 37h1M5 38h3M12 38h1M21 38h1M26 38h1M5 39h1M7 39h5M22 39h5M28 39h1M5 40h3M9 40h5M20 40h5M26 40h2M6 41h1M9 41h5M16 41h2M20 41h5M27 41h1M12 42h2M20 42h2M8 44h1M25 44h1M7 45h2M25 45h2M7 46h2M25 46h2M8 47h1M25 47h1M10 54h1M23 54h1M11 55h1M22 55h1M11 56h1M22 56h1M12 57h1M21 57h1M12 58h1M21 58h1M12 59h1M21 59h1M8 60h1M12 60h1M21 60h1M25 60h1M10 62h5M19 62h5M3 63h8M12 63h2M20 63h2M23 63h8" />
<path stroke="#233bef" d="M11 5h2M21 5h2M7 6h2M12 6h10M25 6h2M6 7h5M15 7h4M23 7h5M9 42h3M22 42h3M5 43h1M9 43h16M5 44h1M9 44h16M4 45h3M9 45h16M27 45h1M4 46h3M9 46h16M27 46h2M3 47h5M9 47h16M26 47h3M5 48h10M19 48h10M5 49h9M20 49h9M5 50h8M21 50h8M5 51h8M21 51h8M5 52h9M20 52h9M6 53h4M12 53h1M21 53h1M24 53h4M6 54h3M25 54h3M7 55h1M26 55h1" />
<path stroke="#ff9b3b" d="M15 8h4M7 9h2M11 9h1M22 9h1M25 9h2M6 10h3M11 10h1M16 10h2M22 10h1M25 10h3M6 11h1M8 11h1M10 11h3M15 11h4M21 11h3M25 11h1M27 11h1M6 12h1M8 12h1M10 12h2M15 12h4M22 12h2M25 12h1M27 12h1M6 13h3M10 13h3M14 13h6M21 13h3M25 13h3M7 14h2M11 14h3M16 14h2M20 14h3M25 14h2M11 15h1M22 15h1" />
<path stroke="#ffffff" d="M12 9h3M19 9h3M12 10h2M15 10h1M18 10h1M20 10h2M13 11h2M19 11h2M4 16h2M13 16h8M3 17h4M11 17h4M16 17h2M19 17h4M2 18h6M11 18h2M14 18h6M21 18h2M26 18h1M2 19h6M11 19h4M19 19h4M26 19h2M2 20h6M26 20h3M2 21h6M26 21h4M1 22h7M10 22h1M23 22h1M26 22h5M1 23h7M11 23h1M22 23h1M26 23h5M1 24h5M7 24h1M12 24h1M21 24h1M26 24h6M1 25h5M7 25h1M12 25h1M21 25h1M26 25h6M1 26h4M7 26h1M13 26h1M20 26h1M26 26h6M1 27h4M7 27h1M14 27h1M19 27h1M26 27h6M1 28h4M7 28h1M15 28h1M18 28h1M26 28h6M1 29h4M16 29h2M27 29h6M1 30h2M12 30h1M14 30h1M19 30h1M21 30h1M28 30h5M1 31h1M14 31h2M18 31h2M28 31h5M15 32h4M28 32h5M13 33h1M15 33h1M18 33h1M20 33h1M28 33h5M15 34h4M26 34h1M28 34h5M8 35h1M12 35h1M14 35h6M21 35h1M25 35h2M28 35h4M8 36h2M14 36h2M18 36h2M24 36h2M28 36h4M8 37h3M13 37h8M23 37h3M28 37h4M8 38h4M13 38h8M22 38h4M28 38h4M12 39h10M29 39h1" />
<path stroke="#db2b00" d="M9 18h1M24 18h1M9 19h1M24 19h1M9 20h1M24 20h1M9 21h2M23 21h2M9 22h1M11 22h3M20 22h3M24 22h1M9 23h2M12 23h10M23 23h2M10 24h2M13 24h8M22 24h2M11 25h1M13 25h1M15 25h4M20 25h1M22 25h1M11 26h2M14 26h1M16 26h2M19 26h1M21 26h2M12 27h2M15 27h1M18 27h1M20 27h2M13 28h2M16 28h2M19 28h2M14 29h2M18 29h2M15 30h4M16 31h2" />
</svg>