<svg xmlns="http://www.w3.org/2000/svg" viewBox="0 -0.5 35 66" shape-rendering="crispEdges">
<metadata>Made with Pixels to Svg http://codepen.io/shshaw/pen/XbxvNj</metadata>
<path stroke="#000000" d="M14 24h6M12 25h10M10 26h14M9 27h16M10 28h14M10 29h14M10 30h14M10 31h14M10 32h14M10 33h1M12 33h10M23 33h1M6 34h1M10 34h1M12 34h10M23 34h1M27 34h1M7 35h1M9 35h1M11 35h1M13 35h8M22 35h1M24 35h1M26 35h1M7 36h1M9 36h3M15 36h1M18 36h1M22 36h3M26 36h1M9 37h4M21 37h4M8 38h5M21 38h5M8 39h5M21 39h5M8 40h4M15 40h4M22 40h4M8 41h1M15 41h4M25 41h1M13 44h1M20 44h1M14 45h1M19 45h1M14 46h1M19 46h1M8 47h2M14 47h1M19 47h1M24 47h2M10 48h1M14 48h1M19 48h1M23 48h1M1 49h4M11 49h1M22 49h1M29 49h4M1 50h1M5 50h1M11 50h1M13 50h1M20 50h1M22 50h1M28 50h1M32 50h1M5 51h1M28 51h1M6 52h1M27 52h1M6 53h1M27 53h1M7 54h1M26 54h1M7 55h1M26 55h1M8 56h1M25 56h1M8 57h1M25 57h1M9 58h1M11 58h1M22 58h1M24 58h1M8 59h3M23 59h3M9 60h2M23 60h2M9 61h2M23 61h2M10 62h1M23 62h1M9 63h1M24 63h1" />
<path stroke="#cb4f0f" d="M9 28h1M24 28h1M9 29h1M24 29h1M9 30h1M24 30h1M9 31h1M24 31h1M11 33h1M22 33h1M11 34h1M22 34h1M10 35h1M12 35h1M21 35h1M23 35h1M12 36h3M16 36h2M19 36h3M15 37h4M2 38h2M30 38h2M1 39h4M29 39h4M1 40h5M12 40h3M19 40h3M28 40h5M1 41h7M9 41h6M19 41h6M26 41h7M1 42h4M6 42h2M26 42h2M29 42h4M1 43h3M30 43h3M1 44h1M3 44h1M30 44h1M32 44h1M1 45h1M3 45h2M29 45h2M32 45h1M4 46h1M29 46h1M2 48h3M29 48h3M5 49h1M28 49h1M6 50h1M27 50h1M6 51h1M8 51h1M25 51h1M27 51h1M7 52h1M9 52h1M24 52h1M26 52h1M7 53h1M9 53h2M23 53h2M26 53h1M8 54h4M22 54h4M8 55h4M22 55h4M9 56h3M22 56h3M9 57h3M22 57h3M7 58h2M10 58h1M23 58h1M25 58h2M6 59h2M11 59h1M22 59h1M26 59h2M5 60h2M11 60h1M22 60h1M27 60h2M5 61h1M11 61h1M22 61h1M28 61h1" />
<path stroke="#ffffff" d="M5 32h5M24 32h5M4 33h6M24 33h6M3 34h3M7 34h3M24 34h3M28 34h3M3 35h4M8 35h1M25 35h1M27 35h4M2 36h5M27 36h5M2 37h4M13 37h2M19 37h2M28 37h4M4 38h2M13 38h8M28 38h2M13 39h8" />
<path stroke="#233bef" d="M8 42h18M6 43h22M5 44h8M14 44h6M21 44h8M5 45h9M15 45h4M20 45h9M5 46h9M15 46h4M20 46h9M5 47h3M10 47h4M15 47h4M20 47h4M26 47h3M5 48h5M11 48h3M15 48h4M20 48h3M24 48h5M6 49h5M12 49h2M15 49h4M20 49h2M23 49h5M2 50h3M7 50h4M12 50h1M14 50h6M21 50h1M23 50h4M29 50h3M1 51h4M7 51h1M9 51h3M14 51h6M22 51h3M26 51h1M29 51h4M1 52h5M8 52h1M10 52h2M22 52h2M25 52h1M28 52h5M1 53h5M8 53h1M11 53h1M22 53h1M25 53h1M28 53h5M1 54h6M27 54h6M2 55h5M27 55h5M2 56h6M26 56h6M3 57h5M26 57h5M4 58h3M27 58h3M5 59h1M28 59h1M7 60h2M25 60h2M6 61h3M25 61h3M6 62h4M24 62h4M7 63h2M25 63h2" />
</svg>