<svg xmlns="http://www.w3.org/2000/svg" viewBox="0 -0.5 33 66" shape-rendering="crispEdges">
<metadata>Made with Pixels to Svg http://codepen.io/shshaw/pen/XbxvNj</metadata>
<path stroke="#cb4f0f" d="M12 0h2M18 0h2M11 1h10M10 2h12M10 3h12M10 4h12M8 5h2M12 5h8M22 5h2M10 6h1M21 6h1M11 7h3M18 7h3M27 30h3M24 31h7M24 32h8M26 33h6M25 34h2M28 34h3M25 35h1M27 35h4M25 36h1M27 36h3M25 37h4M5 38h1M28 38h2M0 39h3M5 39h1M26 39h1M1 40h4M7 40h1M13 40h6M24 40h1M1 41h3M6 41h2M13 41h2M17 41h2M24 41h2M0 42h4M5 42h3M13 42h6M24 42h3M0 43h4M5 43h3M24 43h3M0 44h2M3 44h1M5 44h2M25 44h2M0 45h2M3 45h1M1 46h2M2 47h2M9 53h2M21 53h2M8 54h1M10 54h3M19 54h3M23 54h1M7 55h3M11 55h2M19 55h2M22 55h3M5 56h5M11 56h2M19 56h2M22 56h5M6 57h5M12 57h1M19 57h1M21 57h5M7 58h4M12 58h2M18 58h2M21 58h4M7 59h4M12 59h2M18 59h2M21 59h4M5 60h2M8 60h3M12 60h2M18 60h2M21 60h3M25 60h2M3 61h11M18 61h11M2 62h7M23 62h7" />
<path stroke="#000000" d="M5 5h3M24 5h3M4 6h2M8 6h2M22 6h2M26 6h2M3 7h2M10 7h1M21 7h1M27 7h2M7 8h1M24 8h1M6 11h1M25 11h1M6 12h1M25 12h1M8 16h4M20 16h4M8 17h2M14 17h1M17 17h1M22 17h2M7 18h1M9 18h1M12 18h1M19 18h1M22 18h1M24 18h1M7 19h1M9 19h1M14 19h4M22 19h1M24 19h1M7 20h1M9 20h14M24 20h1M7 21h1M10 21h12M24 21h1M7 22h1M13 22h6M24 22h1M7 23h1M24 23h1M7 24h2M23 24h2M7 25h3M13 25h1M18 25h1M22 25h3M7 26h3M14 26h1M17 26h1M22 26h3M7 27h4M15 27h2M21 27h4M7 28h5M20 28h5M6 29h7M19 29h7M6 30h5M12 30h1M19 30h1M21 30h5M6 31h7M19 31h5M6 32h8M18 32h6M6 33h6M13 33h1M15 33h2M18 33h1M20 33h4M7 34h7M18 34h6M27 34h1M8 35h3M12 35h1M19 35h1M21 35h3M26 35h1M9 36h4M15 36h2M19 36h4M26 36h1M5 37h1M10 37h2M20 37h2M6 38h1M11 38h1M20 38h1M25 38h3M4 39h1M6 39h5M21 39h5M27 39h1M5 40h2M8 40h5M19 40h5M25 40h3M5 41h1M8 41h5M15 41h2M19 41h5M26 41h1M11 42h2M19 42h2M7 44h1M24 44h1M6 45h2M24 45h2M6 46h2M24 46h2M7 47h1M24 47h1M9 54h1M22 54h1M10 55h1M21 55h1M10 56h1M21 56h1M11 57h1M20 57h1M11 58h1M20 58h1M11 59h1M20 59h1M7 60h1M11 60h1M20 60h1M24 60h1M9 62h5M18 62h5M2 63h8M11 63h2M19 63h2M22 63h8" />
<path stroke="#233bef" d="M10 5h2M20 5h2M6 6h2M11 6h10M24 6h2M5 7h5M14 7h4M22 7h5M8 42h3M21 42h3M8 43h16M27 43h1M8 44h16M27 44h1M5 45h1M8 45h16M26 45h3M4 46h2M8 46h16M26 46h3M4 47h3M8 47h16M25 47h5M4 48h10M18 48h10M4 49h9M19 49h9M4 50h8M20 50h8M4 51h8M20 51h8M4 52h9M19 52h9M5 53h4M11 53h1M20 53h1M23 53h4M5 54h3M24 54h3M6 55h1M25 55h1" />
<path stroke="#ffffff" d="M12 8h1M20 8h1M12 9h1M20 9h1M12 10h1M20 10h1M11 11h3M19 11h3M8 12h16M11 13h3M19 13h3M12 14h1M20 14h1M12 15h1M20 15h1M12 16h8M27 16h2M10 17h4M15 17h2M18 17h4M26 17h4M6 18h1M10 18h2M13 18h6M20 18h2M25 18h6M5 19h2M10 19h4M18 19h4M25 19h6M4 20h3M25 20h6M3 21h4M25 21h6M2 22h5M9 22h1M22 22h1M25 22h7M2 23h5M10 23h1M21 23h1M25 23h7M1 24h6M11 24h1M20 24h1M25 24h1M27 24h5M1 25h6M11 25h1M20 25h1M25 25h1M27 25h5M1 26h6M12 26h1M19 26h1M25 26h1M28 26h4M1 27h6M13 27h1M18 27h1M25 27h1M28 27h4M1 28h6M14 28h1M17 28h1M25 28h1M28 28h4M0 29h6M15 29h2M28 29h4M0 30h5M11 30h1M13 30h1M18 30h1M20 30h1M30 30h2M0 31h5M13 31h2M17 31h2M31 31h1M0 32h5M14 32h4M0 33h5M12 33h1M14 33h1M17 33h1M19 33h1M0 34h5M6 34h1M14 34h4M1 35h4M6 35h2M11 35h1M13 35h6M20 35h1M24 35h1M1 36h4M7 36h2M13 36h2M17 36h2M23 36h2M1 37h4M7 37h3M12 37h8M22 37h3M1 38h4M7 38h4M12 38h8M21 38h4M3 39h1M11 39h10" />
<path stroke="#ff9b3b" d="M6 9h2M24 9h2M5 10h3M24 10h3M5 11h1M7 11h1M24 11h1M26 11h1M5 12h1M7 12h1M24 12h1M26 12h1M5 13h3M24 13h3M6 14h2M24 14h2" />
<path stroke="#db2b00" d="M11 10h1M13 10h1M19 10h1M21 10h1M10 11h1M14 11h1M18 11h1M22 11h1M10 13h1M14 13h1M18 13h1M22 13h1M11 14h1M13 14h1M19 14h1M21 14h1M8 18h1M23 18h1M8 19h1M23 19h1M8 20h1M23 20h1M8 21h2M22 21h2M8 22h1M10 22h3M19 22h3M23 22h1M8 23h2M11 23h10M22 23h2M9 24h2M12 24h8M21 24h2M10 25h1M12 25h1M14 25h4M19 25h1M21 25h1M10 26h2M13 26h1M15 26h2M18 26h1M20 26h2M11 27h2M14 27h1M17 27h1M19 27h2M12 28h2M15 28h2M18 28h2M13 29h2M17 29h2M14 30h4M15 31h2" />
</svg>