<svg xmlns="http://www.w3.org/2000/svg" viewBox="0 -0.5 36 66" shape-rendering="crispEdges">
<metadata>Made with Pixels to Svg http://codepen.io/shshaw/pen/XbxvNj</metadata>
<path stroke="#cb4f0f" d="M14 0h2M20 0h2M13 1h10M12 2h12M12 3h12M12 4h12M10 5h2M14 5h8M24 5h2M12 6h1M23 6h1M13 7h3M20 7h3M7 38h1M28 38h1M2 39h3M7 39h1M28 39h1M31 39h3M3 40h4M9 40h1M15 40h6M26 40h1M29 40h4M3 41h3M8 41h2M15 41h2M19 41h2M26 41h2M30 41h3M2 42h4M7 42h3M15 42h6M26 42h3M30 42h4M2 43h4M7 43h3M26 43h3M30 43h4M2 44h2M5 44h1M7 44h2M27 44h2M30 44h1M32 44h2M2 45h2M5 45h1M30 45h1M32 45h2M3 46h2M31 46h2M4 47h2M30 47h2M10 50h2M9 51h1M11 51h3M8 52h3M12 52h2M6 53h5M12 53h2M23 53h2M7 54h5M13 54h1M21 54h3M25 54h1M8 55h4M13 55h2M21 55h2M24 55h3M8 56h4M13 56h2M21 56h2M24 56h5M6 57h2M10 57h2M13 57h2M21 57h1M23 57h5M4 58h11M20 58h2M23 58h4M3 59h7M20 59h2M23 59h4M20 60h2M23 60h3M27 60h2M20 61h11M25 62h7" />
<path stroke="#000000" d="M7 5h3M26 5h3M6 6h2M10 6h2M24 6h2M28 6h2M5 7h2M12 7h1M23 7h1M29 7h2M9 8h7M20 8h7M10 9h2M16 9h4M24 9h2M10 10h2M15 10h1M20 10h1M24 10h2M8 11h1M10 11h1M25 11h1M27 11h1M8 12h1M10 12h1M13 12h3M20 12h3M25 12h1M27 12h1M10 13h1M14 13h1M21 13h1M25 13h1M10 14h2M15 14h2M19 14h2M24 14h2M10 15h2M13 15h10M24 15h2M10 16h4M22 16h4M10 17h2M16 17h1M19 17h1M24 17h2M9 18h1M11 18h1M14 18h1M21 18h1M24 18h1M26 18h1M9 19h1M11 19h1M16 19h4M24 19h1M26 19h1M9 20h1M11 20h14M26 20h1M9 21h1M12 21h12M26 21h1M9 22h1M15 22h6M26 22h1M9 23h1M26 23h1M9 24h2M25 24h2M9 25h3M15 25h1M20 25h1M24 25h3M9 26h3M16 26h1M19 26h1M24 26h3M9 27h4M17 27h2M23 27h4M9 28h5M22 28h5M8 29h7M21 29h7M8 30h5M14 30h1M21 30h1M23 30h5M8 31h7M21 31h7M8 32h8M20 32h8M8 33h6M15 33h1M17 33h2M20 33h1M22 33h6M9 34h7M20 34h7M10 35h3M14 35h1M21 35h1M23 35h3M11 36h4M17 36h2M21 36h4M7 37h1M12 37h2M22 37h2M28 37h1M8 38h1M13 38h1M22 38h1M27 38h1M6 39h1M8 39h5M23 39h5M29 39h1M7 40h2M10 40h5M21 40h5M27 40h2M7 41h1M10 41h5M17 41h2M21 41h5M28 41h1M13 42h2M21 42h2M9 44h1M26 44h1M8 45h2M26 45h2M8 46h2M26 46h2M9 47h1M26 47h1M10 51h1M11 52h1M11 53h1M12 54h1M24 54h1M12 55h1M23 55h1M12 56h1M23 56h1M8 57h2M12 57h1M22 57h1M22 58h1M10 59h5M22 59h1M3 60h8M12 60h2M22 60h1M26 60h1M20 62h5M21 63h2M24 63h8" />
<path stroke="#233bef" d="M12 5h2M22 5h2M8 6h2M13 6h10M26 6h2M7 7h5M16 7h4M24 7h5M10 42h3M23 42h3M10 43h16M10 44h16M7 45h1M10 45h16M28 45h1M6 46h2M10 46h16M28 46h2M6 47h3M10 47h16M27 47h3M5 48h10M20 48h10M5 49h8M21 49h9M5 50h5M12 50h1M22 50h8M6 51h3M22 51h8M7 52h1M21 52h9M22 53h1M25 53h4M26 54h3M27 55h1" />
<path stroke="#ff9b3b" d="M16 8h4M8 9h2M12 9h1M23 9h1M26 9h2M7 10h3M12 10h1M17 10h2M23 10h1M26 10h3M7 11h1M9 11h1M11 11h3M16 11h4M22 11h3M26 11h1M28 11h1M7 12h1M9 12h1M11 12h2M16 12h4M23 12h2M26 12h1M28 12h1M7 13h3M11 13h3M15 13h6M22 13h3M26 13h3M8 14h2M12 14h3M17 14h2M21 14h3M26 14h2M12 15h1M23 15h1" />
<path stroke="#ffffff" d="M13 9h3M20 9h3M13 10h2M16 10h1M19 10h1M21 10h2M14 11h2M20 11h2M14 16h8M12 17h4M17 17h2M20 17h4M8 18h1M12 18h2M15 18h6M22 18h2M27 18h1M7 19h2M12 19h4M20 19h4M27 19h2M6 20h3M27 20h3M5 21h4M27 21h4M4 22h5M11 22h1M24 22h1M27 22h5M4 23h5M12 23h1M23 23h1M27 23h5M3 24h6M13 24h1M22 24h1M27 24h6M3 25h6M13 25h1M22 25h1M27 25h6M3 26h6M14 26h1M21 26h1M27 26h6M3 27h6M15 27h1M20 27h1M27 27h6M3 28h6M16 28h1M19 28h1M27 28h6M2 29h6M17 29h2M28 29h6M2 30h5M13 30h1M15 30h1M20 30h1M22 30h1M29 30h5M2 31h5M15 31h2M19 31h2M29 31h5M2 32h5M16 32h4M29 32h5M2 33h5M14 33h1M16 33h1M19 33h1M21 33h1M29 33h5M2 34h5M8 34h1M16 34h4M27 34h1M29 34h5M3 35h4M8 35h2M13 35h1M15 35h6M22 35h1M26 35h2M29 35h4M3 36h4M9 36h2M15 36h2M19 36h2M25 36h2M29 36h4M3 37h4M9 37h3M14 37h8M24 37h3M29 37h4M3 38h4M9 38h4M14 38h8M23 38h4M29 38h4M5 39h1M13 39h10M30 39h1" />
<path stroke="#db2b00" d="M10 18h1M25 18h1M10 19h1M25 19h1M10 20h1M25 20h1M10 21h2M24 21h2M10 22h1M12 22h3M21 22h3M25 22h1M10 23h2M13 23h10M24 23h2M11 24h2M14 24h8M23 24h2M12 25h1M14 25h1M16 25h4M21 25h1M23 25h1M12 26h2M15 26h1M17 26h2M20 26h1M22 26h2M13 27h2M16 27h1M19 27h1M21 27h2M14 28h2M17 28h2M20 28h2M15 29h2M19 29h2M16 30h4M17 31h2" />
<path stroke="#432f00" d="M29 42h1" />
</svg>