<svg xmlns="http://www.w3.org/2000/svg" viewBox="0 -0.5 264 134" shape-rendering="crispEdges">
<metadata>Made with Pixels to Svg http://codepen.io/shshaw/pen/XbxvNj</metadata>
<path stroke="#24188c" d="M0 0h264M0 1h264M0 2h264M0 3h264M0 4h264M0 5h264M0 6h264M0 7h226M228 7h1M230 7h34M0 8h225M227 8h1M229 8h1M231 8h33M0 9h225M227 9h1M229 9h1M231 9h33M0 10h225M227 10h1M232 10h32M0 11h224M225 11h1M227 11h1M230 11h1M232 11h32M0 12h224M225 12h1M227 12h1M230 12h1M232 12h32M0 13h224M225 13h1M227 13h1M230 13h1M232 13h32M0 14h224M225 14h1M227 14h1M230 14h1M232 14h32M0 15h224M225 15h1M227 15h1M230 15h1M232 15h32M0 16h224M225 16h1M227 16h1M230 16h1M232 16h32M0 17h224M225 17h1M227 17h1M230 17h1M232 17h32M0 18h224M225 18h1M227 18h1M230 18h1M232 18h32M0 19h224M225 19h1M227 19h1M230 19h1M232 19h32M0 20h224M225 20h1M227 20h1M230 20h1M232 20h32M0 21h224M225 21h1M227 21h1M230 21h1M232 21h32M0 22h224M225 22h1M227 22h1M230 22h1M232 22h32M0 23h224M225 23h1M227 23h1M230 23h1M232 23h32M0 24h52M57 24h1M59 24h1M66 24h2M73 24h4M78 24h146M225 24h1M227 24h1M230 24h1M232 24h32M0 25h51M59 25h1M66 25h1M75 25h1M77 25h1M80 25h144M225 25h1M227 25h1M230 25h1M232 25h32M0 26h50M51 26h1M59 26h1M67 26h1M75 26h1M77 26h1M80 26h144M225 26h1M227 26h1M230 26h1M232 26h32M0 27h50M51 27h1M59 27h1M67 27h1M77 27h1M80 27h144M225 27h1M227 27h1M230 27h1M232 27h32M0 28h50M51 28h1M59 28h1M67 28h1M77 28h1M80 28h144M225 28h1M227 28h1M230 28h1M232 28h32M0 29h50M51 29h1M59 29h1M67 29h1M77 29h1M80 29h144M225 29h1M227 29h1M230 29h1M232 29h32M0 30h50M51 30h1M59 30h1M67 30h1M75 30h1M77 30h1M80 30h1M82 30h142M225 30h1M227 30h1M230 30h1M232 30h32M0 31h50M51 31h1M67 31h1M75 31h1M77 31h1M81 31h1M83 31h141M225 31h1M227 31h1M230 31h1M232 31h32M0 32h50M51 32h1M59 32h1M67 32h1M75 32h1M77 32h1M80 32h1M83 32h141M225 32h1M227 32h1M230 32h1M232 32h32M0 33h43M49 33h1M67 33h1M75 33h1M77 33h1M80 33h1M83 33h126M211 33h1M213 33h11M225 33h1M227 33h1M230 33h1M232 33h32M0 34h42M67 34h1M75 34h1M77 34h1M80 34h1M83 34h125M210 34h1M212 34h1M214 34h10M225 34h1M227 34h1M230 34h1M232 34h32M0 35h41M42 35h1M67 35h1M75 35h3M80 35h1M83 35h125M210 35h1M215 35h9M225 35h1M227 35h1M230 35h1M232 35h32M0 36h41M42 36h1M67 36h1M75 36h3M80 36h1M83 36h124M208 36h1M210 36h1M213 36h1M215 36h9M225 36h1M227 36h1M230 36h1M232 36h32M0 37h41M42 37h1M67 37h1M75 37h3M80 37h1M83 37h124M208 37h1M210 37h1M213 37h1M215 37h9M225 37h1M227 37h1M230 37h1M232 37h32M0 38h41M42 38h1M67 38h1M75 38h3M80 38h1M83 38h124M208 38h1M210 38h1M213 38h1M215 38h9M225 38h1M227 38h1M230 38h1M232 38h32M0 39h41M42 39h1M75 39h3M80 39h1M83 39h124M208 39h1M210 39h1M213 39h1M215 39h9M225 39h1M227 39h1M230 39h1M232 39h32M0 40h41M42 40h1M67 40h1M75 40h3M80 40h1M83 40h124M208 40h1M210 40h1M213 40h1M215 40h9M225 40h1M227 40h1M230 40h1M232 40h32M0 41h41M42 41h1M59 41h1M67 41h1M75 41h1M80 41h1M83 41h29M114 41h93M208 41h1M210 41h1M213 41h1M215 41h9M225 41h1M227 41h1M230 41h1M232 41h32M0 42h41M42 42h1M59 42h1M67 42h1M75 42h1M80 42h1M83 42h28M113 42h1M115 42h92M208 42h1M210 42h1M213 42h1M215 42h9M225 42h1M227 42h1M230 42h1M232 42h32M0 43h41M42 43h1M59 43h1M67 43h1M75 43h1M80 43h1M83 43h27M111 43h1M114 43h1M116 43h91M208 43h1M210 43h1M213 43h1M215 43h9M225 43h1M227 43h1M230 43h1M232 43h32M0 44h41M42 44h1M59 44h1M67 44h1M75 44h1M80 44h1M83 44h27M111 44h1M114 44h1M116 44h91M208 44h1M210 44h1M213 44h1M215 44h9M225 44h1M227 44h1M230 44h1M232 44h32M0 45h41M42 45h1M59 45h1M67 45h1M75 45h1M80 45h1M83 45h27M111 45h1M114 45h1M116 45h91M208 45h1M210 45h1M213 45h1M215 45h9M225 45h1M227 45h1M230 45h1M232 45h32M0 46h41M59 46h1M67 46h1M75 46h1M80 46h1M83 46h27M111 46h1M114 46h1M116 46h91M208 46h1M210 46h1M213 46h1M215 46h9M225 46h1M227 46h1M230 46h1M232 46h32M0 47h41M42 47h1M75 47h1M80 47h1M83 47h27M111 47h1M114 47h1M116 47h91M208 47h1M210 47h1M213 47h1M215 47h9M225 47h1M227 47h1M230 47h1M232 47h32M0 48h41M42 48h1M75 48h1M80 48h1M83 48h27M111 48h1M114 48h1M116 48h91M208 48h1M210 48h1M213 48h1M215 48h9M225 48h1M227 48h1M230 48h1M232 48h32M0 49h41M42 49h1M59 49h1M67 49h1M75 49h1M80 49h1M83 49h27M111 49h1M114 49h1M116 49h91M208 49h1M210 49h1M213 49h1M215 49h9M225 49h1M227 49h1M230 49h1M232 49h32M0 50h35M40 50h1M42 50h1M51 50h1M67 50h1M75 50h2M80 50h1M83 50h27M111 50h1M114 50h1M116 50h4M122 50h85M208 50h1M210 50h1M213 50h1M215 50h9M225 50h1M227 50h1M230 50h1M232 50h10M244 50h1M246 50h18M0 51h34M42 51h1M51 51h1M67 51h1M75 51h2M80 51h1M83 51h27M111 51h1M114 51h1M116 51h3M121 51h1M123 51h84M208 51h1M210 51h1M213 51h1M215 51h9M225 51h1M227 51h1M230 51h1M232 51h9M243 51h1M245 51h1M247 51h17M0 52h33M34 52h1M42 52h1M51 52h1M67 52h1M75 52h2M80 52h1M83 52h27M111 52h1M114 52h1M116 52h2M119 52h1M122 52h1M124 52h83M208 52h1M210 52h1M213 52h1M215 52h9M225 52h1M227 52h1M230 52h1M232 52h9M243 52h1M248 52h16M0 53h33M34 53h1M42 53h1M51 53h1M67 53h1M75 53h2M80 53h1M83 53h27M111 53h1M114 53h1M116 53h2M119 53h1M122 53h1M124 53h83M208 53h1M210 53h1M213 53h1M215 53h9M225 53h1M227 53h1M230 53h1M232 53h8M241 53h1M243 53h1M246 53h1M248 53h16M0 54h33M34 54h1M42 54h1M51 54h1M67 54h1M75 54h2M80 54h1M83 54h27M111 54h1M114 54h1M116 54h2M119 54h1M122 54h1M124 54h83M208 54h1M210 54h1M213 54h1M215 54h9M225 54h1M227 54h1M230 54h1M232 54h8M241 54h1M243 54h1M246 54h1M248 54h16M0 55h33M34 55h1M42 55h1M51 55h1M75 55h2M79 55h2M83 55h27M111 55h1M114 55h1M116 55h2M119 55h1M122 55h1M124 55h83M208 55h1M210 55h1M213 55h1M215 55h9M225 55h1M227 55h1M230 55h1M232 55h8M241 55h1M243 55h1M246 55h1M248 55h16M0 56h33M34 56h1M67 56h1M75 56h2M79 56h1M83 56h27M111 56h1M114 56h1M116 56h2M119 56h1M122 56h1M124 56h83M208 56h1M210 56h1M213 56h1M215 56h9M225 56h1M227 56h1M230 56h1M232 56h8M241 56h1M243 56h1M246 56h1M248 56h16M0 57h33M34 57h1M42 57h1M51 57h1M67 57h1M75 57h2M79 57h1M83 57h27M111 57h1M114 57h1M116 57h2M119 57h1M122 57h1M124 57h83M208 57h1M210 57h1M213 57h1M215 57h9M225 57h1M227 57h1M230 57h1M232 57h8M241 57h1M243 57h1M246 57h1M248 57h16M0 58h33M34 58h1M42 58h1M59 58h1M75 58h2M79 58h1M83 58h27M111 58h1M114 58h1M116 58h2M119 58h1M122 58h1M124 58h83M208 58h1M211 58h1M213 58h1M225 58h1M227 58h1M230 58h1M232 58h8M241 58h1M243 58h1M246 58h1M248 58h16M0 59h33M34 59h1M42 59h1M59 59h1M75 59h2M79 59h1M83 59h27M111 59h1M114 59h1M116 59h2M119 59h1M122 59h1M124 59h83M208 59h1M211 59h1M214 59h10M225 59h1M227 59h1M230 59h1M232 59h8M241 59h1M243 59h1M246 59h1M248 59h16M0 60h33M34 60h1M42 60h1M59 60h1M75 60h2M79 60h1M83 60h27M111 60h1M114 60h1M116 60h2M119 60h1M122 60h1M124 60h83M208 60h1M211 60h1M225 60h1M227 60h1M230 60h1M232 60h8M241 60h1M243 60h1M246 60h1M248 60h16M0 61h33M34 61h1M42 61h1M59 61h1M75 61h2M79 61h1M83 61h27M111 61h1M114 61h1M116 61h2M119 61h1M122 61h1M124 61h83M208 61h1M212 61h1M225 61h1M227 61h1M230 61h1M232 61h8M241 61h1M243 61h1M246 61h1M248 61h16M0 62h33M34 62h1M42 62h1M59 62h1M75 62h2M79 62h1M83 62h27M111 62h1M114 62h1M116 62h2M119 62h1M122 62h1M124 62h83M209 62h1M213 62h11M225 62h1M227 62h1M230 62h1M232 62h8M241 62h1M243 62h1M246 62h1M248 62h16M0 63h33M42 63h1M59 63h1M75 63h2M79 63h1M83 63h27M111 63h1M114 63h1M116 63h2M119 63h1M122 63h1M124 63h84M210 63h1M225 63h1M227 63h1M230 63h1M232 63h8M241 63h1M243 63h1M246 63h1M248 63h16M0 64h33M34 64h1M75 64h2M79 64h1M83 64h27M111 64h1M114 64h1M116 64h2M119 64h1M122 64h1M124 64h85M211 64h13M225 64h1M227 64h1M230 64h1M232 64h8M241 64h1M243 64h1M246 64h1M248 64h16M0 65h33M34 65h1M42 65h1M59 65h1M75 65h2M79 65h1M83 65h27M111 65h1M114 65h1M116 65h2M119 65h1M122 65h1M124 65h87M225 65h1M227 65h1M230 65h1M232 65h8M241 65h1M243 65h1M246 65h1M248 65h16M0 66h33M34 66h1M51 66h1M59 66h1M75 66h1M83 66h27M111 66h1M114 66h1M116 66h1M119 66h1M122 66h1M124 66h100M225 66h1M227 66h1M230 66h1M241 66h1M243 66h1M246 66h1M248 66h16M0 67h33M34 67h1M51 67h1M59 67h1M75 67h1M79 67h1M83 67h27M111 67h1M114 67h1M118 67h1M122 67h1M124 67h100M225 67h1M227 67h1M230 67h1M232 67h9M243 67h1M246 67h1M248 67h16M0 68h33M34 68h1M51 68h1M59 68h1M75 68h1M79 68h1M83 68h27M111 68h1M114 68h1M118 68h1M122 68h1M124 68h100M225 68h1M227 68h1M230 68h1M232 68h9M243 68h1M246 68h1M248 68h16M0 69h33M34 69h1M51 69h1M59 69h1M75 69h1M79 69h1M83 69h27M111 69h1M114 69h1M116 69h2M122 69h1M124 69h100M225 69h1M227 69h1M230 69h1M243 69h1M246 69h1M248 69h16M0 70h33M34 70h1M51 70h1M59 70h1M75 70h1M79 70h1M83 70h27M111 70h1M114 70h1M122 70h1M124 70h100M225 70h1M227 70h1M230 70h1M242 70h1M246 70h1M248 70h16M0 71h33M34 71h1M51 71h1M59 71h1M75 71h1M79 71h1M83 71h27M111 71h1M114 71h1M121 71h1M124 71h100M225 71h1M227 71h1M230 71h1M232 71h10M245 71h1M248 71h16M0 72h33M34 72h1M59 72h1M75 72h1M79 72h1M83 72h27M111 72h1M114 72h1M116 72h5M123 72h101M225 72h1M227 72h1M230 72h1M244 72h1M247 72h17M0 73h33M51 73h1M75 73h1M79 73h1M83 73h27M111 73h1M114 73h1M122 73h102M225 73h1M227 73h1M230 73h1M232 73h12M246 73h18M0 74h33M34 74h1M51 74h1M59 74h1M75 74h1M79 74h2M83 74h27M111 74h1M114 74h1M116 74h108M225 74h1M227 74h1M230 74h1M244 74h20M0 75h32M84 75h26M111 75h1M114 75h1M116 75h108M225 75h1M227 75h1M230 75h1M232 75h32M0 76h31M85 76h25M111 76h1M114 76h1M116 76h108M225 76h1M227 76h1M230 76h1M232 76h32M0 77h30M86 77h24M111 77h1M114 77h1M116 77h108M225 77h1M227 77h1M230 77h1M232 77h32M0 78h29M87 78h23M111 78h1M114 78h1M116 78h108M225 78h1M227 78h1M230 78h1M232 78h32M0 79h28M88 79h22M111 79h1M114 79h1M116 79h108M225 79h1M227 79h1M230 79h1M232 79h32M0 80h27M89 80h21M111 80h1M114 80h1M116 80h108M225 80h1M227 80h1M230 80h1M232 80h32M0 81h26M90 81h20M111 81h1M114 81h1M116 81h108M225 81h1M227 81h1M230 81h1M232 81h32M0 82h25M91 82h19M111 82h1M114 82h1M116 82h108M225 82h1M227 82h1M230 82h1M232 82h32M111 83h1M114 83h1M225 83h1M227 83h1M230 83h1M0 84h110M111 84h1M114 84h1M116 84h108M225 84h1M227 84h1M230 84h1M232 84h32M111 85h1M114 85h1M225 85h1M227 85h1M230 85h1M0 86h110M111 86h1M114 86h1M116 86h108M225 86h1M227 86h1M230 86h1M232 86h32M111 87h1M114 87h1M225 87h1M227 87h1M230 87h1M111 88h1M114 88h1M225 88h1M227 88h1M230 88h1M111 89h1M114 89h1M225 89h1M227 89h1M230 89h1M111 90h1M114 90h1M225 90h1M227 90h1M230 90h1M111 91h1M114 91h1M225 91h1M227 91h1M230 91h1M225 92h1M227 92h1M230 92h1M225 93h1M227 93h1M230 93h1M17 94h1M78 94h1M80 94h1M116 94h1M199 94h1M225 94h1M227 94h1M230 94h1M18 95h1M20 95h1M42 95h4M75 95h1M79 95h1M117 95h1M119 95h1M125 95h4M183 95h3M200 95h1M202 95h1M208 95h4M225 95h1M227 95h1M230 95h1M21 96h2M46 96h4M71 96h1M73 96h4M78 96h1M120 96h2M124 96h1M126 96h4M186 96h4M203 96h2M207 96h1M209 96h4M225 96h1M227 96h1M230 96h1M70 97h1M72 97h1M77 97h1M79 97h1M128 97h1M211 97h1M225 97h1M227 97h1M230 97h1M78 98h1M80 98h1M225 98h1M227 98h1M230 98h1M68 99h1M70 99h1M75 99h3M225 99h1M227 99h1M230 99h1M174 111h1M235 111h1M237 111h1M175 112h1M177 112h1M183 112h4M192 112h3M232 112h1M236 112h1M178 113h2M182 113h1M184 113h4M195 113h4M229 113h1M231 113h3M235 113h1M186 114h1M228 114h1M230 114h1M234 114h1M236 114h1M46 115h1M235 115h1M237 115h1M46 116h1M226 116h1M228 116h1M232 116h3M30 117h1M34 117h1M38 117h1M41 117h1M47 117h1M29 118h1M31 118h1M33 118h2M36 118h1M38 118h2M41 118h1M43 118h2M46 118h1M29 119h3M33 119h2M36 119h4M41 119h4M46 119h1M66 119h1M108 119h1M29 120h1M31 120h3M35 120h1M37 120h1M39 120h3M43 120h4M67 120h1M69 120h1M76 120h4M84 120h3M109 120h1M111 120h1M26 121h1M32 121h1M40 121h1M45 121h1M70 121h2M75 121h1M77 121h4M87 121h4M112 121h2M25 122h1M27 122h1M30 122h1M33 122h1M37 122h2M41 122h2M46 122h1M48 122h1M79 122h1M26 123h5M32 123h1M34 123h4M39 123h3M43 123h3M47 123h1M153 123h1M153 124h1M138 125h1M142 125h1M146 125h1M149 125h1M154 125h1M137 126h1M139 126h1M141 126h2M144 126h1M146 126h2M149 126h1M151 126h1M153 126h1M137 127h1M139 127h1M141 127h2M144 127h1M146 127h2M149 127h1M151 127h1M153 127h1M137 128h3M141 128h2M144 128h4M149 128h3M153 128h1M224 128h1M137 129h1M139 129h3M143 129h1M145 129h1M147 129h3M151 129h3M167 129h3M225 129h1M227 129h1M233 129h4M134 130h1M140 130h1M148 130h1M152 130h1M170 130h4M228 130h2M232 130h1M234 130h4M132 131h2M135 131h1M138 131h1M141 131h1M145 131h2M149 131h2M153 131h1M155 131h1M236 131h1M134 132h5M140 132h1M142 132h4M147 132h3M151 132h2M154 132h1" />
<path stroke="#009400" d="M226 7h2M225 8h2M228 8h1M225 9h2M228 9h1M225 10h2M228 10h2M224 11h1M226 11h1M228 11h2M224 12h1M226 12h1M228 12h2M224 13h1M226 13h1M228 13h2M224 14h1M226 14h1M228 14h2M224 15h1M226 15h1M228 15h2M224 16h1M226 16h1M228 16h2M224 17h1M226 17h1M228 17h2M224 18h1M226 18h1M228 18h2M224 19h1M226 19h1M228 19h2M224 20h1M226 20h1M228 20h2M224 21h1M226 21h1M228 21h2M224 22h1M226 22h1M228 22h2M224 23h1M226 23h1M228 23h2M224 24h1M226 24h1M228 24h2M224 25h1M226 25h1M228 25h2M224 26h1M226 26h1M228 26h2M224 27h1M226 27h1M228 27h2M224 28h1M226 28h1M228 28h2M224 29h1M226 29h1M228 29h2M224 30h1M226 30h1M228 30h2M224 31h1M226 31h1M228 31h2M224 32h1M226 32h1M228 32h2M209 33h2M224 33h1M226 33h1M228 33h2M208 34h2M211 34h1M224 34h1M226 34h1M228 34h2M208 35h2M211 35h2M224 35h1M226 35h1M228 35h2M207 36h1M209 36h1M211 36h2M224 36h1M226 36h1M228 36h2M207 37h1M209 37h1M211 37h2M224 37h1M226 37h1M228 37h2M207 38h1M209 38h1M211 38h2M224 38h1M226 38h1M228 38h2M207 39h1M209 39h1M211 39h2M224 39h1M226 39h1M228 39h2M207 40h1M209 40h1M211 40h2M224 40h1M226 40h1M228 40h2M112 41h1M207 41h1M209 41h1M211 41h2M224 41h1M226 41h1M228 41h2M111 42h2M207 42h1M209 42h1M211 42h2M224 42h1M226 42h1M228 42h2M110 43h1M112 43h2M207 43h1M209 43h1M211 43h2M224 43h1M226 43h1M228 43h2M110 44h1M112 44h2M207 44h1M209 44h1M211 44h2M224 44h1M226 44h1M228 44h2M110 45h1M112 45h2M207 45h1M209 45h1M211 45h2M224 45h1M226 45h1M228 45h2M110 46h1M112 46h2M207 46h1M209 46h1M211 46h2M224 46h1M226 46h1M228 46h2M110 47h1M112 47h2M207 47h1M209 47h1M211 47h2M224 47h1M226 47h1M228 47h2M110 48h1M112 48h2M207 48h1M209 48h1M211 48h2M224 48h1M226 48h1M228 48h2M110 49h1M112 49h2M207 49h1M209 49h1M211 49h2M224 49h1M226 49h1M228 49h2M110 50h1M112 50h2M120 50h1M207 50h1M209 50h1M211 50h2M224 50h1M226 50h1M228 50h2M242 50h2M110 51h1M112 51h2M119 51h2M207 51h1M209 51h1M211 51h2M224 51h1M226 51h1M228 51h2M241 51h2M244 51h1M110 52h1M112 52h2M118 52h1M120 52h2M207 52h1M209 52h1M211 52h2M224 52h1M226 52h1M228 52h2M241 52h2M244 52h2M110 53h1M112 53h2M118 53h1M120 53h2M207 53h1M209 53h1M211 53h2M224 53h1M226 53h1M228 53h2M240 53h1M242 53h1M244 53h2M110 54h1M112 54h2M118 54h1M120 54h2M207 54h1M209 54h1M211 54h2M224 54h1M226 54h1M228 54h2M240 54h1M242 54h1M244 54h2M110 55h1M112 55h2M118 55h1M120 55h2M207 55h1M209 55h1M211 55h2M224 55h1M226 55h1M228 55h2M240 55h1M242 55h1M244 55h2M110 56h1M112 56h2M118 56h1M120 56h2M207 56h1M209 56h1M211 56h2M224 56h1M226 56h1M228 56h2M240 56h1M242 56h1M244 56h2M110 57h1M112 57h2M118 57h1M120 57h2M207 57h1M209 57h1M211 57h2M224 57h1M226 57h1M228 57h2M240 57h1M242 57h1M244 57h2M110 58h1M112 58h2M118 58h1M120 58h2M207 58h1M209 58h2M212 58h1M214 58h11M226 58h1M228 58h2M240 58h1M242 58h1M244 58h2M110 59h1M112 59h2M118 59h1M120 59h2M207 59h1M209 59h2M212 59h2M224 59h1M226 59h1M228 59h2M240 59h1M242 59h1M244 59h2M110 60h1M112 60h2M118 60h1M120 60h2M207 60h1M209 60h2M212 60h13M226 60h1M228 60h2M240 60h1M242 60h1M244 60h2M110 61h1M112 61h2M118 61h1M120 61h2M207 61h1M209 61h3M213 61h12M226 61h1M228 61h2M240 61h1M242 61h1M244 61h2M110 62h1M112 62h2M118 62h1M120 62h2M207 62h2M210 62h3M224 62h1M226 62h1M228 62h2M240 62h1M242 62h1M244 62h2M110 63h1M112 63h2M118 63h1M120 63h2M208 63h2M211 63h14M226 63h1M228 63h2M240 63h1M242 63h1M244 63h2M110 64h1M112 64h2M118 64h1M120 64h2M209 64h2M224 64h1M226 64h1M228 64h2M240 64h1M242 64h1M244 64h2M110 65h1M112 65h2M118 65h1M120 65h2M211 65h14M226 65h1M228 65h2M240 65h1M242 65h1M244 65h2M110 66h1M112 66h2M117 66h2M120 66h2M224 66h1M226 66h1M228 66h2M232 66h9M242 66h1M244 66h2M110 67h1M112 67h2M116 67h2M119 67h3M224 67h1M226 67h1M228 67h2M241 67h2M244 67h2M110 68h1M112 68h2M116 68h2M119 68h3M224 68h1M226 68h1M228 68h2M241 68h2M244 68h2M110 69h1M112 69h2M118 69h4M224 69h1M226 69h1M228 69h2M232 69h11M244 69h2M110 70h1M112 70h2M116 70h6M224 70h1M226 70h1M228 70h2M232 70h10M243 70h3M110 71h1M112 71h2M116 71h5M122 71h1M224 71h1M226 71h1M228 71h2M242 71h3M246 71h1M110 72h1M112 72h2M121 72h1M224 72h1M226 72h1M228 72h2M232 72h12M245 72h1M110 73h1M112 73h2M116 73h5M224 73h1M226 73h1M228 73h2M244 73h1M110 74h1M112 74h2M224 74h1M226 74h1M228 74h2M232 74h12M110 75h1M112 75h2M224 75h1M226 75h1M228 75h2M110 76h1M112 76h2M224 76h1M226 76h1M228 76h2M110 77h1M112 77h2M224 77h1M226 77h1M228 77h2M110 78h1M112 78h2M224 78h1M226 78h1M228 78h2M110 79h1M112 79h2M224 79h1M226 79h1M228 79h2M110 80h1M112 80h2M224 80h1M226 80h1M228 80h2M110 81h1M112 81h2M224 81h1M226 81h1M228 81h2M110 82h1M112 82h2M224 82h1M226 82h1M228 82h2M110 83h1M112 83h2M224 83h1M226 83h1M228 83h2M110 84h1M112 84h2M224 84h1M226 84h1M228 84h2M110 85h1M112 85h2M224 85h1M226 85h1M228 85h2M110 86h1M112 86h2M224 86h1M226 86h1M228 86h2M110 87h1M112 87h2M224 87h1M226 87h1M228 87h2M110 88h1M112 88h2M224 88h1M226 88h1M228 88h2M110 89h1M112 89h2M224 89h1M226 89h1M228 89h2M110 90h1M112 90h2M224 90h1M226 90h1M228 90h2M110 91h1M112 91h2M224 91h1M226 91h1M228 91h2M72 92h3M76 92h2M79 92h1M224 92h1M226 92h1M228 92h2M70 93h11M224 93h1M226 93h1M228 93h2M68 94h1M70 94h5M76 94h2M79 94h1M81 94h1M224 94h1M226 94h1M228 94h2M69 95h2M72 95h1M77 95h2M80 95h1M224 95h1M226 95h1M228 95h2M68 96h1M79 96h3M224 96h1M226 96h1M228 96h2M67 97h1M69 97h1M71 97h1M73 97h4M78 97h1M80 97h1M82 97h1M224 97h1M226 97h1M228 97h2M68 98h1M70 98h8M224 98h1M226 98h1M228 98h2M71 99h1M73 99h2M78 99h1M224 99h1M226 99h1M228 99h2M34 109h2M38 109h2M42 109h1M230 109h2M233 109h2M236 109h1M35 110h4M40 110h2M46 110h1M228 110h10M32 111h2M36 111h7M45 111h1M226 111h1M228 111h4M233 111h2M236 111h1M238 111h1M31 112h7M39 112h7M227 112h2M230 112h1M234 112h2M237 112h1M29 113h2M32 113h7M40 113h2M43 113h4M226 113h1M236 113h3M28 114h2M31 114h2M34 114h9M45 114h3M225 114h1M227 114h1M229 114h1M231 114h3M235 114h1M237 114h1M239 114h1M27 115h2M30 115h2M33 115h10M47 115h1M226 115h1M228 115h7M26 116h1M28 116h4M33 116h1M35 116h1M37 116h1M39 116h2M42 116h3M47 116h2M229 116h1M231 116h1M235 116h1M27 117h3M48 117h1M142 117h2M146 117h2M150 117h1M26 118h3M47 118h3M143 118h4M148 118h2M153 118h1M26 119h1M28 119h1M47 119h1M49 119h1M140 119h2M144 119h7M152 119h1M28 120h1M30 120h1M34 120h1M36 120h1M38 120h1M42 120h1M47 120h1M49 120h1M139 120h7M147 120h6M27 121h5M33 121h7M41 121h4M46 121h3M137 121h2M140 121h7M148 121h2M151 121h3M26 122h1M28 122h2M31 122h2M34 122h3M39 122h2M43 122h3M47 122h1M49 122h1M136 122h2M139 122h2M142 122h9M152 122h3M31 123h1M135 123h2M138 123h2M141 123h10M154 123h1M134 124h1M136 124h4M141 124h1M143 124h1M145 124h1M147 124h2M150 124h2M154 124h2M135 125h3M155 125h1M134 126h3M154 126h3M134 127h3M154 127h3M134 128h1M136 128h1M154 128h1M156 128h1M136 129h1M138 129h1M142 129h1M144 129h1M146 129h1M150 129h1M154 129h1M156 129h1M135 130h5M141 130h7M149 130h3M153 130h3M134 131h1M136 131h2M139 131h2M142 131h3M147 131h2M151 131h2M154 131h1M156 131h1M139 132h1" />
<path stroke="#fcbcb0" d="M229 7h1M230 8h1M230 9h1M230 10h2M231 11h1M231 12h1M231 13h1M231 14h1M231 15h1M231 16h1M231 17h1M231 18h1M231 19h1M231 20h1M231 21h1M231 22h1M231 23h1M231 24h1M231 25h1M231 26h1M231 27h1M231 28h1M231 29h1M231 30h1M231 31h1M231 32h1M212 33h1M231 33h1M213 34h1M231 34h1M213 35h2M231 35h1M214 36h1M231 36h1M214 37h1M231 37h1M214 38h1M231 38h1M214 39h1M231 39h1M214 40h1M231 40h1M113 41h1M214 41h1M231 41h1M114 42h1M214 42h1M231 42h1M115 43h1M214 43h1M231 43h1M115 44h1M214 44h1M231 44h1M115 45h1M214 45h1M231 45h1M115 46h1M214 46h1M231 46h1M115 47h1M214 47h1M231 47h1M115 48h1M214 48h1M231 48h1M115 49h1M214 49h1M231 49h1M115 50h1M121 50h1M214 50h1M231 50h1M245 50h1M115 51h1M122 51h1M214 51h1M231 51h1M246 51h1M115 52h1M123 52h1M214 52h1M231 52h1M246 52h2M115 53h1M123 53h1M214 53h1M231 53h1M247 53h1M115 54h1M123 54h1M214 54h1M231 54h1M247 54h1M115 55h1M123 55h1M214 55h1M231 55h1M247 55h1M115 56h1M123 56h1M214 56h1M231 56h1M247 56h1M115 57h1M123 57h1M214 57h1M231 57h1M247 57h1M115 58h1M123 58h1M231 58h1M247 58h1M115 59h1M123 59h1M231 59h1M247 59h1M115 60h1M123 60h1M231 60h1M247 60h1M115 61h1M123 61h1M231 61h1M247 61h1M115 62h1M123 62h1M231 62h1M247 62h1M115 63h1M123 63h1M231 63h1M247 63h1M115 64h1M123 64h1M231 64h1M247 64h1M115 65h1M123 65h1M231 65h1M247 65h1M115 66h1M123 66h1M231 66h1M247 66h1M115 67h1M123 67h1M231 67h1M247 67h1M115 68h1M123 68h1M231 68h1M247 68h1M115 69h1M123 69h1M231 69h1M247 69h1M115 70h1M123 70h1M231 70h1M247 70h1M115 71h1M123 71h1M231 71h1M247 71h1M115 72h1M122 72h1M231 72h1M246 72h1M115 73h1M121 73h1M231 73h1M245 73h1M115 74h1M231 74h1M115 75h1M231 75h1M115 76h1M231 76h1M115 77h1M231 77h1M115 78h1M231 78h1M115 79h1M231 79h1M115 80h1M231 80h1M115 81h1M231 81h1M115 82h1M231 82h1M115 83h1M231 83h1M115 84h1M231 84h1M115 85h1M231 85h1M115 86h1M231 86h1M115 87h1M231 87h1M115 88h1M231 88h1M115 89h1M231 89h1M115 90h1M231 90h1M115 91h1M231 91h1M71 92h1M231 92h1M69 93h1M126 93h4M209 93h4M231 93h1M18 94h1M43 94h3M75 94h1M117 94h1M125 94h6M184 94h2M200 94h1M208 94h6M231 94h1M21 95h2M46 95h4M71 95h1M73 95h2M76 95h1M120 95h2M124 95h1M129 95h2M186 95h4M203 95h2M207 95h1M212 95h2M231 95h1M70 96h1M72 96h1M77 96h1M130 96h2M213 96h2M231 96h1M129 97h2M212 97h2M231 97h1M231 98h1M231 99h1M229 109h1M31 110h3M184 110h4M227 110h1M30 111h1M34 111h2M175 111h1M183 111h6M193 111h2M232 111h1M38 112h1M46 112h1M178 112h2M182 112h1M187 112h2M195 112h4M229 112h1M231 112h1M233 112h1M31 113h1M39 113h1M42 113h1M47 113h1M188 113h2M228 113h1M230 113h1M234 113h1M30 114h1M33 114h1M43 114h2M48 114h1M187 114h2M29 115h1M32 115h1M43 115h3M49 115h1M32 116h1M34 116h1M36 116h1M38 116h1M41 116h1M45 116h1M31 117h3M35 117h3M39 117h2M42 117h5M30 118h1M32 118h1M35 118h1M37 118h1M40 118h1M42 118h1M45 118h1M77 118h4M139 118h3M32 119h1M35 119h1M40 119h1M45 119h1M67 119h1M76 119h6M85 119h2M109 119h1M138 119h1M142 119h2M70 120h2M75 120h1M80 120h2M87 120h4M112 120h2M146 120h1M153 120h1M81 121h2M139 121h1M147 121h1M150 121h1M154 121h1M80 122h2M138 122h1M141 122h1M151 122h1M155 122h1M137 123h1M140 123h1M151 123h2M156 123h1M140 124h1M142 124h1M144 124h1M146 124h1M149 124h1M152 124h1M139 125h3M143 125h3M147 125h2M150 125h4M138 126h1M140 126h1M143 126h1M145 126h1M148 126h1M150 126h1M152 126h1M234 126h4M138 127h1M140 127h1M143 127h1M145 127h1M148 127h1M150 127h1M152 127h1M234 127h4M140 128h1M143 128h1M148 128h1M152 128h1M168 128h2M225 128h1M233 128h6M170 129h4M228 129h2M232 129h1M237 129h2M238 130h2M237 131h2" />
<path stroke="#7c0800" d="M52 24h1M54 24h1M58 24h1M61 24h4M68 24h1M70 24h1M77 24h1M51 25h1M53 25h3M58 25h1M61 25h4M67 25h1M69 25h3M76 25h1M50 26h1M53 26h3M58 26h1M61 26h4M66 26h1M69 26h3M76 26h1M50 27h1M53 27h3M58 27h1M61 27h4M66 27h1M69 27h3M75 27h2M50 28h1M53 28h3M58 28h1M61 28h4M66 28h1M69 28h3M75 28h2M50 29h1M53 29h3M58 29h1M61 29h4M66 29h1M69 29h3M75 29h2M50 30h1M53 30h4M58 30h1M61 30h4M66 30h1M69 30h4M76 30h1M81 30h1M50 31h1M53 31h4M58 31h2M61 31h4M66 31h1M69 31h4M76 31h1M80 31h1M50 32h1M53 32h4M58 32h1M61 32h6M69 32h4M76 32h1M43 33h2M46 33h1M50 33h17M69 33h4M76 33h1M42 34h1M45 34h3M50 34h17M69 34h4M76 34h1M41 35h1M45 35h3M50 35h17M69 35h4M41 36h1M45 36h3M50 36h17M69 36h4M41 37h1M45 37h3M50 37h17M69 37h4M41 38h1M45 38h4M50 38h17M69 38h4M41 39h1M45 39h4M50 39h18M69 39h4M41 40h1M45 40h4M50 40h17M69 40h6M41 41h1M45 41h14M60 41h7M68 41h7M76 41h1M41 42h1M45 42h14M60 42h7M68 42h7M76 42h1M41 43h1M45 43h14M60 43h5M66 43h1M68 43h5M76 43h1M41 44h1M45 44h14M60 44h5M66 44h1M68 44h5M76 44h1M41 45h1M45 45h14M60 45h5M66 45h1M68 45h5M76 45h1M41 46h18M60 46h5M66 46h1M68 46h5M76 46h1M41 47h1M45 47h20M66 47h7M76 47h1M41 48h1M45 48h20M66 48h7M76 48h1M41 49h1M45 49h14M60 49h7M68 49h7M76 49h1M35 50h1M37 50h1M41 50h1M43 50h8M52 50h15M69 50h6M34 51h1M36 51h3M41 51h1M43 51h8M52 51h15M69 51h6M33 52h1M36 52h3M41 52h1M43 52h6M50 52h1M52 52h5M58 52h9M69 52h6M33 53h1M36 53h3M41 53h1M43 53h6M50 53h1M52 53h5M58 53h9M69 53h6M81 53h1M33 54h1M36 54h3M41 54h1M43 54h6M50 54h1M52 54h5M58 54h9M69 54h6M81 54h1M33 55h1M36 55h4M41 55h1M43 55h6M50 55h1M52 55h5M58 55h17M81 55h1M33 56h1M36 56h4M41 56h8M50 56h7M58 56h9M69 56h6M33 57h1M36 57h4M41 57h1M43 57h8M52 57h15M69 57h6M33 58h1M36 58h6M43 58h16M60 58h15M33 59h1M36 59h6M43 59h16M60 59h15M33 60h1M36 60h6M43 60h6M50 60h9M60 60h5M66 60h9M33 61h1M36 61h6M43 61h6M50 61h9M60 61h5M66 61h9M33 62h1M36 62h6M43 62h6M50 62h9M60 62h5M66 62h9M33 63h9M43 63h6M50 63h9M60 63h5M66 63h9M33 64h1M36 64h13M50 64h15M66 64h9M33 65h1M36 65h6M43 65h16M60 65h15M33 66h1M35 66h16M53 66h6M60 66h15M33 67h1M35 67h16M53 67h6M60 67h15M33 68h1M35 68h16M53 68h6M60 68h15M33 69h1M35 69h5M41 69h10M53 69h6M60 69h5M66 69h9M33 70h1M35 70h5M41 70h10M53 70h6M60 70h5M66 70h9M33 71h1M35 71h5M41 71h10M53 71h6M60 71h5M66 71h9M33 72h1M35 72h5M41 72h18M60 72h5M66 72h9M33 73h7M41 73h10M53 73h12M66 73h9M33 74h1M35 74h16M53 74h6M60 74h15M37 76h1M46 76h1M54 76h1M62 76h1M70 76h1M79 76h1M34 77h1M42 77h1M51 77h1M59 77h1M67 77h1M76 77h1M31 79h3M36 79h1M39 79h1M41 79h1M45 79h1M48 79h1M50 79h1M53 79h1M56 79h1M58 79h1M61 79h1M64 79h1M66 79h1M69 79h1M72 79h1M75 79h1M78 79h1M81 79h1M83 79h1M83 81h1M29 82h1M34 82h1M37 82h1M42 82h1M46 82h1M51 82h1M54 82h1M59 82h1M62 82h1M67 82h1M70 82h1M76 82h1M79 82h1M84 82h1M86 82h1" />
<path stroke="#a40000" d="M53 24h1M55 24h1M60 24h1M65 24h1M69 24h1M71 24h1M52 25h1M56 25h1M60 25h1M65 25h1M68 25h1M72 25h1M52 26h1M56 26h1M60 26h1M65 26h1M68 26h1M72 26h1M52 27h1M56 27h1M60 27h1M65 27h1M68 27h1M72 27h1M52 28h1M56 28h1M60 28h1M65 28h1M68 28h1M72 28h1M52 29h1M56 29h1M60 29h1M65 29h1M68 29h1M72 29h1M52 30h1M57 30h1M60 30h1M65 30h1M68 30h1M73 30h2M52 31h1M57 31h1M60 31h1M65 31h1M68 31h1M73 31h2M52 32h1M57 32h1M60 32h1M68 32h1M73 32h2M45 33h1M47 33h1M68 33h1M73 33h2M43 34h2M48 34h1M68 34h1M73 34h2M43 35h2M48 35h1M68 35h1M73 35h2M43 36h2M48 36h1M68 36h1M73 36h2M43 37h2M48 37h1M68 37h1M73 37h2M43 38h2M49 38h1M68 38h1M73 38h2M43 39h2M49 39h1M68 39h1M73 39h2M43 40h2M49 40h1M68 40h1M43 41h2M43 42h2M43 43h2M65 43h1M73 43h2M43 44h2M65 44h1M73 44h2M43 45h2M65 45h1M73 45h2M65 46h1M73 46h2M43 47h2M65 47h1M73 47h2M43 48h2M65 48h1M73 48h2M43 49h2M36 50h1M38 50h1M68 50h1M35 51h1M39 51h1M68 51h1M35 52h1M39 52h1M49 52h1M57 52h1M68 52h1M35 53h1M39 53h1M49 53h1M57 53h1M68 53h1M35 54h1M39 54h1M49 54h1M57 54h1M68 54h1M35 55h1M40 55h1M49 55h1M57 55h1M35 56h1M40 56h1M49 56h1M57 56h1M68 56h1M80 56h1M35 57h1M40 57h1M68 57h1M80 57h1M35 58h1M80 58h1M35 59h1M80 59h1M35 60h1M49 60h1M65 60h1M80 60h1M35 61h1M49 61h1M65 61h1M80 61h1M35 62h1M49 62h1M65 62h1M80 62h1M49 63h1M65 63h1M80 63h1M35 64h1M49 64h1M65 64h1M80 64h1M35 65h1M80 65h1M52 66h1M80 66h1M52 67h1M80 67h1M52 68h1M80 68h1M40 69h1M52 69h1M65 69h1M80 69h1M40 70h1M52 70h1M65 70h1M80 70h1M40 71h1M52 71h1M65 71h1M80 71h1M40 72h1M65 72h1M80 72h1M40 73h1M52 73h1M65 73h1M80 73h2M52 74h1M81 74h1M33 75h50M32 76h2M35 76h2M39 76h3M43 76h3M48 76h3M52 76h2M56 76h3M60 76h2M64 76h3M68 76h2M72 76h4M77 76h2M81 76h3M31 77h3M35 77h7M43 77h8M52 77h7M60 77h7M68 77h8M77 77h8M30 78h2M33 78h4M38 78h1M40 78h6M47 78h1M49 78h5M55 78h1M57 78h5M63 78h1M65 78h5M71 78h1M73 78h6M80 78h1M82 78h1M84 78h1M29 79h2M35 79h1M37 79h2M40 79h1M43 79h2M46 79h2M49 79h1M52 79h1M54 79h2M57 79h1M60 79h1M62 79h2M65 79h1M68 79h1M70 79h2M73 79h2M77 79h1M79 79h2M82 79h1M84 79h2M28 80h56M85 80h2M27 81h2M30 81h5M36 81h7M45 81h7M53 81h7M61 81h7M69 81h8M78 81h5M84 81h5M26 82h3M30 82h4M35 82h2M39 82h3M43 82h3M48 82h3M52 82h2M56 82h3M60 82h2M64 82h3M68 82h2M72 82h4M77 82h2M81 82h3M85 82h1M88 82h2" />
<path stroke="#fcc4d8" d="M56 24h1M72 24h1M57 25h1M73 25h2M78 25h2M57 26h1M73 26h2M78 26h2M57 27h1M73 27h2M78 27h2M57 28h1M73 28h2M78 28h2M57 29h1M73 29h2M78 29h2M78 30h2M78 31h2M82 31h1M78 32h2M81 32h2M48 33h1M78 33h2M81 33h2M49 34h1M78 34h2M81 34h2M49 35h1M78 35h2M81 35h2M49 36h1M78 36h2M81 36h2M49 37h1M78 37h2M81 37h2M78 38h2M81 38h2M78 39h2M81 39h2M78 40h2M81 40h2M77 41h3M81 41h2M77 42h3M81 42h2M77 43h3M81 43h2M77 44h3M81 44h2M77 45h3M81 45h2M77 46h3M81 46h2M77 47h3M81 47h2M77 48h3M81 48h2M77 49h3M81 49h2M39 50h1M77 50h3M81 50h2M40 51h1M77 51h3M81 51h2M40 52h1M77 52h3M81 52h2M40 53h1M77 53h3M82 53h1M40 54h1M77 54h3M82 54h1M77 55h2M82 55h1M77 56h2M81 56h2M77 57h2M81 57h2M77 58h2M81 58h2M77 59h2M81 59h2M77 60h2M81 60h2M77 61h2M81 61h2M77 62h2M81 62h2M77 63h2M81 63h2M77 64h2M81 64h2M77 65h2M81 65h2M76 66h4M81 66h2M76 67h3M81 67h2M76 68h3M81 68h2M76 69h3M81 69h2M76 70h3M81 70h2M76 71h3M81 71h2M76 72h3M81 72h2M76 73h3M82 73h1M76 74h3M82 74h1M32 75h1M83 75h1M31 76h1M34 76h1M38 76h1M42 76h1M47 76h1M51 76h1M55 76h1M59 76h1M63 76h1M67 76h1M71 76h1M76 76h1M80 76h1M84 76h1M30 77h1M85 77h1M29 78h1M32 78h1M37 78h1M39 78h1M46 78h1M48 78h1M54 78h1M56 78h1M62 78h1M64 78h1M70 78h1M72 78h1M79 78h1M81 78h1M83 78h1M85 78h2M28 79h1M34 79h1M42 79h1M51 79h1M59 79h1M67 79h1M76 79h1M86 79h2M27 80h1M84 80h1M87 80h2M26 81h1M29 81h1M35 81h1M43 81h2M52 81h1M60 81h1M68 81h1M77 81h1M89 81h1M25 82h1M38 82h1M47 82h1M55 82h1M63 82h1M71 82h1M80 82h1M87 82h1M90 82h1" />
<path stroke="#887000" d="M0 83h110M116 83h108M232 83h32M0 85h110M116 85h108M232 85h32M0 87h110M116 87h108M232 87h32M0 88h110M116 88h108M232 88h32M0 89h110M116 89h108M232 89h32M0 90h110M116 90h108M232 90h32M0 91h110M116 91h108M232 91h32M0 92h71M75 92h1M78 92h1M80 92h144M232 92h32M0 93h69M81 93h45M130 93h79M213 93h11M232 93h32M0 94h17M19 94h24M46 94h22M69 94h1M82 94h34M118 94h7M131 94h53M186 94h13M201 94h7M214 94h10M232 94h32M0 95h18M19 95h1M23 95h19M50 95h19M81 95h36M118 95h1M122 95h2M131 95h52M190 95h10M201 95h1M205 95h2M214 95h10M232 95h32M0 96h21M23 96h23M50 96h18M69 96h1M82 96h38M122 96h2M125 96h1M132 96h54M190 96h13M205 96h2M208 96h1M215 96h9M232 96h32M0 97h67M68 97h1M81 97h1M83 97h45M131 97h80M214 97h10M232 97h32M0 98h68M69 98h1M79 98h1M81 98h143M232 98h32M0 99h68M69 99h1M72 99h1M79 99h145M232 99h32M0 100h264M0 101h264M0 102h264M0 103h264M0 104h264M0 105h264M0 106h264M0 107h264M0 108h264M0 109h34M36 109h2M40 109h2M43 109h186M232 109h1M235 109h1M237 109h27M0 110h31M34 110h1M39 110h1M42 110h4M47 110h137M188 110h39M238 110h26M0 111h30M31 111h1M43 111h2M46 111h128M176 111h7M189 111h4M195 111h31M227 111h1M239 111h25M0 112h31M47 112h128M176 112h1M180 112h2M189 112h3M199 112h28M238 112h26M0 113h29M48 113h130M180 113h2M183 113h1M190 113h5M199 113h27M227 113h1M239 113h25M0 114h28M49 114h137M189 114h36M226 114h1M238 114h1M240 114h24M0 115h27M48 115h1M50 115h176M227 115h1M236 115h1M238 115h26M0 116h26M27 116h1M49 116h177M227 116h1M230 116h1M236 116h28M0 117h27M49 117h93M144 117h2M148 117h2M151 117h113M0 118h26M50 118h27M81 118h58M142 118h1M147 118h1M150 118h3M154 118h110M0 119h26M27 119h1M48 119h1M50 119h16M68 119h8M82 119h3M87 119h21M110 119h28M139 119h1M151 119h1M153 119h111M0 120h28M48 120h1M50 120h17M68 120h1M72 120h3M82 120h2M91 120h18M110 120h1M114 120h25M154 120h110M0 121h26M49 121h21M72 121h3M76 121h1M83 121h4M91 121h21M114 121h23M155 121h109M0 122h25M50 122h29M82 122h54M156 122h108M0 123h26M33 123h1M38 123h1M42 123h1M46 123h1M48 123h87M155 123h1M157 123h107M0 124h134M135 124h1M156 124h108M0 125h135M156 125h108M0 126h134M157 126h77M238 126h26M0 127h134M157 127h77M238 127h26M0 128h134M135 128h1M155 128h1M157 128h11M170 128h54M226 128h7M239 128h25M0 129h136M155 129h1M157 129h10M174 129h51M226 129h1M230 129h2M239 129h25M0 130h134M156 130h14M174 130h54M230 130h2M233 130h1M240 130h24M0 131h132M157 131h79M239 131h25M0 132h134M141 132h1M146 132h1M150 132h1M153 132h1M155 132h109M0 133h264" />
</svg>